<svg xmlns="http://www.w3.org/2000/svg" viewBox="0 0 512 512" role="img" aria-label="오늘의 말씀">
  <defs>
    <linearGradient id="bg" x1="0%" y1="0%" x2="100%" y2="100%">
      <stop offset="0%" stop-color="#eff6ff" />
      <stop offset="55%" stop-color="#e0e7ff" />
      <stop offset="100%" stop-color="#ecfdf5" />
    </linearGradient>
    <linearGradient id="book-left" x1="0%" y1="0%" x2="100%" y2="100%">
      <stop offset="0%" stop-color="#6366f1" />
      <stop offset="100%" stop-color="#4f46e5" />
    </linearGradient>
    <linearGradient id="book-right" x1="0%" y1="0%" x2="100%" y2="100%">
      <stop offset="0%" stop-color="#818cf8" />
      <stop offset="100%" stop-color="#6366f1" />
    </linearGradient>
    <filter id="soft" x="-20%" y="-20%" width="140%" height="140%">
      <feDropShadow dx="0" dy="8" stdDeviation="12" flood-color="#6366f1" flood-opacity="0.18" />
    </filter>
  </defs>
  <rect width="512" height="512" rx="112" fill="url(#bg)" />
  <rect
    x="88"
    y="88"
    width="336"
    height="336"
    rx="80"
    fill="#ffffff"
    fill-opacity="0.92"
    filter="url(#soft)"
  />
  <g transform="translate(256 278)">
    <path fill="url(#book-left)" d="M-92 -72 L-4 -58 L-4 78 L-92 64 Z" />
    <path fill="url(#book-right)" d="M4 -58 L92 -72 L92 64 L4 78 Z" />
    <path fill="#4338ca" d="M-4 -58 L4 -58 L4 78 L-4 78 Z" />
    <path fill="#c7d2fe" d="M-72 -20 L-24 -14 L-24 8 L-72 2 Z" opacity="0.85" />
    <path fill="#c7d2fe" d="M24 -14 L72 -20 L72 2 L24 8 Z" opacity="0.85" />
    <path fill="#f59e0b" d="M-8 -78 L8 -78 L12 -48 L-12 -48 Z" />
    <ellipse cx="0" cy="-62" rx="10" ry="6" fill="#fbbf24" />
  </g>
</svg>
